<svg height="600" width="600" font-family="sans-serif" version="1.1" xmlns="http://www.w3.org/2000/svg"><circle cx="300.0" cy="300.0" r="288.0" fill="#343a40" /><path d="M300.0 300.0 L516.0 109.5 A288.0 288.0 0 0 0 391.81 27.03 Z" fill="#463b44" stroke="#F7F3F0" stroke-width="1" stroke-opacity="1"></path><path d="M300.0 300.0 L391.81 27.03 A288.0 288.0 0 0 0 243.03 17.69 Z" fill="#484943" stroke="#F7F3F0" stroke-width="1" stroke-opacity="1"></path><path d="M300.0 300.0 L243.03 17.69 A288.0 288.0 0 0 0 109.5 84.0 Z" fill="#2f4949" stroke="#F7F3F0" stroke-width="1" stroke-opacity="1"></path><path d="M300.0 300.0 L109.5 84.0 A288.0 288.0 0 0 0 27.03 208.19 Z" fill="#3b4750" stroke="#F7F3F0" stroke-width="1" stroke-opacity="1"></path><path d="M300.0 300.0 L27.03 208.19 A288.0 288.0 0 0 0 17.69 356.97 Z" fill="#463b44" stroke="#F7F3F0" stroke-width="1" stroke-opacity="1"></path><path d="M300.0 300.0 L17.69 356.97 A288.0 288.0 0 0 0 84.0 490.5 Z" fill="#484943" stroke="#F7F3F0" stroke-width="1" stroke-opacity="1"></path><path d="M300.0 300.0 L84.0 490.5 A288.0 288.0 0 0 0 208.19 572.97 Z" fill="#2f4949" stroke="#F7F3F0" stroke-width="1" stroke-opacity="1"></path><path d="M300.0 300.0 L208.19 572.97 A288.0 288.0 0 0 0 356.97 582.31 Z" fill="#3b4750" stroke="#F7F3F0" stroke-width="1" stroke-opacity="1"></path><path d="M300.0 300.0 L356.97 582.31 A288.0 288.0 0 0 0 490.5 516.0 Z" fill="#463b44" stroke="#F7F3F0" stroke-width="1" stroke-opacity="1"></path><path d="M300.0 300.0 L490.5 516.0 A288.0 288.0 0 0 0 572.97 391.81 Z" fill="#484943" stroke="#F7F3F0" stroke-width="1" stroke-opacity="1"></path><path d="M300.0 300.0 L572.97 391.81 A288.0 288.0 0 0 0 582.31 243.03 Z" fill="#2f4949" stroke="#F7F3F0" stroke-width="1" stroke-opacity="1"></path><path d="M300.0 300.0 L582.31 243.03 A288.0 288.0 0 0 0 516.0 109.5 Z" fill="#3b4750" stroke="#F7F3F0" stroke-width="1" stroke-opacity="1"></path><circle cx="300.0" cy="300.0" r="244.8" fill="#343a40" /><path d="M300.0 300.0 L55.2 299.96 A244.8 244.8 0 0 0 79.58 406.51 Z" fill="#463b44" stroke="#F7F3F0" stroke-width="1" stroke-opacity="1"></path><text x="82.4246127519076" y="349.7914738066935" fill="#ef476f" font-size="19.008" text-anchor="middle" dominant-baseline="central">1</text><path d="M300.0 300.0 L79.58 406.51 A244.8 244.8 0 0 0 160.82 501.38 Z" fill="#484943" stroke="#F7F3F0" stroke-width="1" stroke-opacity="1"></path><text x="130.4546274063357" y="445.16406797853097" fill="#ffd166" font-size="19.008" text-anchor="middle" dominant-baseline="central">2</text><path d="M300.0 300.0 L160.82 501.38 A244.8 244.8 0 0 0 289.62 544.58 Z" fill="#2f4949" stroke="#F7F3F0" stroke-width="1" stroke-opacity="1"></path><text x="229.02986797143592" y="511.6163518252977" fill="#06d6a0" font-size="19.008" text-anchor="middle" dominant-baseline="central">3</text><path d="M300.0 300.0 L289.62 544.58 A244.8 244.8 0 0 0 422.07 512.2 Z" fill="#3b4750" stroke="#F7F3F0" stroke-width="1" stroke-opacity="1"></path><text x="353.0136721513371" y="516.8128007407093" fill="#81bce7" font-size="19.008" text-anchor="middle" dominant-baseline="central">4</text><path d="M300.0 300.0 L422.07 512.2 A244.8 244.8 0 0 0 513.65 419.5 Z" fill="#463b44" stroke="#F7F3F0" stroke-width="1" stroke-opacity="1"></path><text x="458.77371463010775" y="456.873030003749" fill="#ef476f" font-size="19.008" text-anchor="middle" dominant-baseline="central">5</text><path d="M300.0 300.0 L513.65 419.5 A244.8 244.8 0 0 0 544.8 300.04 Z" fill="#484943" stroke="#F7F3F0" stroke-width="1" stroke-opacity="1"></path><text x="515.9779556176219" y="356.3184045160423" fill="#ffd166" font-size="19.008" text-anchor="middle" dominant-baseline="central">6</text><path d="M300.0 300.0 L544.8 300.04 A244.8 244.8 0 0 0 520.42 193.49 Z" fill="#2f4949" stroke="#F7F3F0" stroke-width="1" stroke-opacity="1"></path><text x="517.5753872480924" y="250.2085261933065" fill="#06d6a0" font-size="19.008" text-anchor="middle" dominant-baseline="central">7</text><path d="M300.0 300.0 L520.42 193.49 A244.8 244.8 0 0 0 439.18 98.62 Z" fill="#3b4750" stroke="#F7F3F0" stroke-width="1" stroke-opacity="1"></path><text x="469.5453725936643" y="154.83593202146906" fill="#81bce7" font-size="19.008" text-anchor="middle" dominant-baseline="central">8</text><path d="M300.0 300.0 L439.18 98.62 A244.8 244.8 0 0 0 310.38 55.42 Z" fill="#463b44" stroke="#F7F3F0" stroke-width="1" stroke-opacity="1"></path><text x="370.97013202856414" y="88.38364817470227" fill="#ef476f" font-size="19.008" text-anchor="middle" dominant-baseline="central">9</text><path d="M300.0 300.0 L310.38 55.42 A244.8 244.8 0 0 0 177.93 87.8 Z" fill="#484943" stroke="#F7F3F0" stroke-width="1" stroke-opacity="1"></path><text x="246.9863278486627" y="83.18719925929068" fill="#ffd166" font-size="19.008" text-anchor="middle" dominant-baseline="central">10</text><path d="M300.0 300.0 L177.93 87.8 A244.8 244.8 0 0 0 86.35 180.5 Z" fill="#2f4949" stroke="#F7F3F0" stroke-width="1" stroke-opacity="1"></path><text x="141.22628536989228" y="143.126969996251" fill="#06d6a0" font-size="19.008" text-anchor="middle" dominant-baseline="central">11</text><path d="M300.0 300.0 L86.35 180.5 A244.8 244.8 0 0 0 55.2 299.96 Z" fill="#3b4750" stroke="#F7F3F0" stroke-width="1" stroke-opacity="1"></path><text x="84.02204438237814" y="243.68159548395772" fill="#81bce7" font-size="19.008" text-anchor="middle" dominant-baseline="central">12</text><circle cx="300.0" cy="300.0" r="201.60000000000002" fill="#343a40" stroke="#F7F3F0" stroke-width="1" /><circle cx="300.0" cy="300.0" r="158.4" fill="#88888800" stroke="#515860" stroke-width="1" /><line x1="300.0" y1="300.0" x2="4.564155062780628e-06" y2="299.9476693872168" stroke="#F7F3F0" stroke-width="1" stroke-opacity="1" /><line x1="300.0" y1="300.0" x2="118.4804330350874" y2="387.7109275339773" stroke="#515860" stroke-width="1" stroke-opacity="1" /><line x1="300.0" y1="300.0" x2="185.37794706981703" y2="465.84433961420075" stroke="#515860" stroke-width="1" stroke-opacity="1" /><line x1="300.0" y1="300.0" x2="287.2803930015204" y2="599.7302313711518" stroke="#F7F3F0" stroke-width="1" stroke-opacity="1" /><line x1="300.0" y1="300.0" x2="400.5256463383815" y2="474.7488324088337" stroke="#515860" stroke-width="1" stroke-opacity="1" /><line x1="300.0" y1="300.0" x2="475.9467581554341" y2="398.413913114931" stroke="#515860" stroke-width="1" stroke-opacity="1" /><line x1="300.0" y1="300.0" x2="599.999995435845" y2="300.0523306127831" stroke="#F7F3F0" stroke-width="1" stroke-opacity="1" /><line x1="300.0" y1="300.0" x2="481.5195669649126" y2="212.28907246602267" stroke="#515860" stroke-width="1" stroke-opacity="1" /><line x1="300.0" y1="300.0" x2="414.6220529301831" y2="134.1556603857994" stroke="#515860" stroke-width="1" stroke-opacity="1" /><line x1="300.0" y1="300.0" x2="312.7196069984795" y2="0.26976862884811226" stroke="#F7F3F0" stroke-width="1" stroke-opacity="1" /><line x1="300.0" y1="300.0" x2="199.47435366161844" y2="125.25116759116631" stroke="#515860" stroke-width="1" stroke-opacity="1" /><line x1="300.0" y1="300.0" x2="124.05324184456586" y2="201.58608688506905" stroke="#515860" stroke-width="1" stroke-opacity="1" /><g stroke="#ef476f" stroke-width="1.5" fill="none" transform="translate(436.584757676783, 67.28404022117756) scale(1.0)"><circle cx="10" cy="10" r="12" stroke="none" fill="#463b44" /><path d="m2.8867 9.53c-0.48441-0.48454-0.84187-1.0811-1.0407-1.7367-0.19883-0.65567-0.2329-1.3502-0.0992-2.0222 0.13371-0.67198 0.43106-1.3006 0.86572-1.8302 0.43467-0.52963 0.99323-0.9439 1.6262-1.2061 0.63299-0.26222 1.3209-0.36429 2.0027-0.29718 0.68187 0.06711 1.3367 0.30134 1.9064 0.68193 0.56973 0.38059 1.0368 0.8958 1.3599 1.5s0.49216 1.2788 0.49228 1.9639m0 0c1.1e-4 -0.68516 0.16921-1.3597 0.49231-1.9639 0.323-0.60421 0.7901-1.1194 1.3599-1.5 0.5697-0.38059 1.2245-0.61482 1.9063-0.68193 0.6819-0.06711 1.3698 0.03496 2.0028 0.29718 0.633 0.26221 1.1915 0.67648 1.6262 1.2061 0.4347 0.52962 0.732 1.1583 0.8657 1.8302 0.1337 0.67199 0.0997 1.3666-0.0992 2.0222-0.1988 0.65568-0.5563 1.2522-1.0407 1.7367m-7.1133-2.9467v12.5" stroke-linecap="round" stroke-linejoin="round"/></g><g stroke="#ffd166" stroke-width="1.5" fill="none" transform="translate(305.8809643892966, 23.32276248794257) scale(1.0)"><circle cx="10" cy="10" r="12" stroke="none" fill="#484943" /><path d="m15.555 1.9167c0 1.4733-0.5852 2.8862-1.627 3.928-1.0418 1.0418-2.4539 1.6279-3.9272 1.6279-1.4732 0-2.887-0.58609-3.9288-1.6279-1.0418-1.0418-1.627-2.4547-1.627-3.928" stroke-linecap="round" stroke-linejoin="round"/>
<path d="m10.001 18.585c3.0686 0 5.5562-2.4876 5.5562-5.5562 0-3.0687-2.4876-5.5563-5.5562-5.5563-3.0687 0-5.5563 2.4876-5.5563 5.5563 0 3.0686 2.4876 5.5562 5.5563 5.5562z"/></g><g stroke="#06d6a0" stroke-width="1.5" fill="none" transform="translate(170.70752016472585, 50.603075831880986) scale(1.0)"><circle cx="10" cy="10" r="12" stroke="none" fill="#2f4949" /><path d="m5.8333 3.87v13.26m8.3334-13.26v13.26m4.1666-14.963c-2.5333 1.4636-5.4075 2.2342-8.3333 2.2342-2.9258 0-5.8-0.77058-8.3333-2.2342m16.667 16.667c-2.5337-1.4626-5.4077-2.2326-8.3333-2.2326-2.9256 0-5.7996 0.77-8.3333 2.2326" stroke-linecap="round" stroke-linejoin="round"/></g><g stroke="#81bce7" stroke-width="1.5" fill="none" transform="translate(67.28404022117768, 141.81524232321678) scale(1.0)"><circle cx="10" cy="10" r="12" stroke="none" fill="#3b4750" /><path d="m18.333 10.5c0-0.3649-0.0718-0.72614-0.2115-1.0632-0.1396-0.33709-0.3442-0.64337-0.6022-0.90136s-0.5643-0.46264-0.9014-0.60227c-0.3371-0.13962-0.6983-0.21148-1.0632-0.21148s-0.7261 0.07186-1.0632 0.21148c-0.3371 0.13963-0.6434 0.34428-0.9014 0.60227s-0.4626 0.56427-0.6022 0.90136c-0.1397 0.33708-0.2115 0.69832-0.2115 1.0632 0 0.7369 0.2927 1.4435 0.8137 1.9646 0.5211 0.521 1.2277 0.8137 1.9646 0.8137s1.4435-0.2927 1.9646-0.8137c0.521-0.5211 0.8137-1.2277 0.8137-1.9646zm0 0c-3e-4 -1.6479-0.4893-3.2587-1.405-4.6288s-2.217-2.4379-3.7395-3.0685c-1.5225-0.63058-3.1978-0.79561-4.8141-0.47421-1.6163 0.3214-3.101 1.1148-4.2664 2.2799m-2.4417 5.8917c0 0.3649 0.07187 0.7261 0.21149 1.0632 0.13963 0.3371 0.34428 0.6434 0.60227 0.9014s0.56427 0.4626 0.90136 0.6022c0.33708 0.1397 0.69836 0.2115 1.0632 0.2115 0.36485 0 0.72614-0.0718 1.0632-0.2115 0.33708-0.1396 0.64336-0.3442 0.90136-0.6022 0.25799-0.258 0.46264-0.5643 0.60226-0.9014 0.13963-0.3371 0.21149-0.6983 0.21149-1.0632 0-0.73686-0.29272-1.4435-0.81375-1.9646-0.52104-0.52104-1.2277-0.81375-1.9646-0.81375s-1.4435 0.29271-1.9646 0.81375-0.81376 1.2277-0.81376 1.9646zm0 0c3.6e-4 1.6479 0.48929 3.2587 1.405 4.6288s2.2171 2.4379 3.7396 3.0685 3.1978 0.7956 4.8141 0.4742c1.6162-0.3214 3.1009-1.1148 4.2664-2.2798" stroke-linecap="round" stroke-linejoin="round"/></g><g stroke="#ef476f" stroke-width="1.5" fill="none" transform="translate(23.32276248794257, 272.5190356107034) scale(1.0)"><circle cx="10" cy="10" r="12" stroke="none" fill="#463b44" /><path d="m7.9167 12.583c0-2.0833-2.0833-4.1666-2.0833-6.25 0-1.1051 0.43899-2.1649 1.2204-2.9463s1.8412-1.2204 2.9463-1.2204c1.1051 0 2.1649 0.43899 2.9463 1.2204s1.2204 1.8412 1.2204 2.9463c0 4.1667-2.0834 6.25-2.0834 10.417 0 0.5525 0.2195 1.0824 0.6102 1.4731s0.9206 0.6102 1.4732 0.6102c0.5525 0 1.0824-0.2195 1.4731-0.6102s0.6102-0.9206 0.6102-1.4731m-8.3333-4.1667c0-0.5525-0.2195-1.0824-0.6102-1.4731s-0.9206-0.6102-1.4731-0.6102c-0.55253 0-1.0824 0.2195-1.4731 0.6102s-0.61019 0.9206-0.61019 1.4731c0 0.5526 0.21949 1.0825 0.61019 1.4732s0.92061 0.6102 1.4731 0.6102c0.55254 0 1.0824-0.2195 1.4731-0.6102s0.6102-0.9206 0.6102-1.4732z" stroke-linecap="round" stroke-linejoin="round"/></g><g stroke="#ffd166" stroke-width="1.5" fill="none" transform="translate(50.60307583188104, 407.69247983527424) scale(1.0)"><circle cx="10" cy="10" r="12" stroke="none" fill="#484943" /><path d="m1.5043 7.094c-0.26642-0.30638-0.46302-0.68357-0.57238-1.0982-0.10936-0.41459-0.1281-0.85378-0.05456-1.2787 0.073536-0.4249 0.23708-0.82239 0.47615-1.1573 0.23906-0.33488 0.54627-0.59683 0.89442-0.76263s0.72649-0.23034 1.1015-0.1879c0.37502 0.04243 0.73516 0.19053 1.0485 0.43118s0.57024 0.56643 0.74793 0.94847 0.27069 0.80857 0.27076 1.2418m0 0v10.538m0-10.538c0-0.69874 0.24144-1.3689 0.67121-1.863 0.42977-0.49408 1.0127-0.77165 1.6204-0.77165s1.1907 0.27757 1.6204 0.77165c0.42977 0.49409 0.67121 1.1642 0.67121 1.863m4.5833 2.6346c0-0.69874 0.2415-1.3689 0.6713-1.863 0.4297-0.49408 1.0126-0.77166 1.6204-0.77166s1.1907 0.27758 1.6205 0.77166c0.4297 0.49409 0.6712 1.1642 0.6712 1.863 0 2.0962-0.7244 4.1066-2.0137 5.5888-1.2893 1.4823-3.038 2.315-4.8613 2.315m-2.2917-10.538c0-0.69874 0.2415-1.3689 0.6712-1.863 0.4298-0.49408 1.0127-0.77165 1.6205-0.77165s1.1907 0.27757 1.6204 0.77165c0.4298 0.49409 0.6712 1.1642 0.6712 1.863v10.538c0 1.4543 1.0267 2.6346 2.2917 2.6346m-6.875-13.173v10.538" stroke-linecap="round" stroke-linejoin="round"/></g><g stroke="#06d6a0" stroke-width="1.5" fill="none" transform="translate(141.81524232321684, 511.1159597788223) scale(1.0)"><circle cx="10" cy="10" r="12" stroke="none" fill="#2f4949" /><path d="m1.6667 10.5h4.1667c0-1.1051 0.43898-2.1649 1.2204-2.9463 0.7814-0.7814 1.8412-1.2204 2.9463-1.2204 1.1051 0 2.1649 0.43899 2.9463 1.2204s1.2204 1.8412 1.2204 2.9463h4.1666m-16.667 4.1667h16.667" stroke-linecap="round" stroke-linejoin="round"/></g><g stroke="#81bce7" stroke-width="1.5" fill="none" transform="translate(272.5190356107034, 555.0772375120575) scale(1.0)"><circle cx="10" cy="10" r="12" stroke="none" fill="#3b4750" /><path d="m16.933 14.766v-2.3796h2.2338m-17.679-4.9629c-0.25971-0.27673-0.45134-0.6174-0.55794-0.99186-0.1066-0.37446-0.12486-0.77114-0.053182-1.1549s0.23109-0.74279 0.46413-1.0453c0.23303-0.30247 0.53248-0.53906 0.87184-0.68882 0.33936-0.14975 0.70814-0.20804 1.0737-0.16971 0.36556 0.03832 0.7166 0.17209 1.022 0.38945 0.30544 0.21735 0.55585 0.51159 0.72905 0.85666 0.1732 0.34506 0.26385 0.7303 0.26392 1.1216m0 0v9.5184m0-9.5184c0-0.63111 0.23534-1.2364 0.65427-1.6826 0.41892-0.44626 0.98709-0.69697 1.5795-0.69697 0.59244 0 1.1606 0.25071 1.5795 0.69697s0.65427 1.0515 0.65427 1.6826m0 0v9.5184m0-9.5184c0-0.63111 0.23532-1.2364 0.65422-1.6826 0.419-0.44626 0.9871-0.69697 1.5796-0.69697 0.5924 0 1.1606 0.25071 1.5795 0.69697 0.419 0.44626 0.6543 1.0515 0.6543 1.6826v9.5184c1e-4 0.3913 0.0907 0.7766 0.2639 1.1216 0.1732 0.3451 0.4236 0.6393 0.7291 0.8567 0.3054 0.2173 0.6565 0.3511 1.022 0.3894 0.3656 0.0384 0.7344-0.0199 1.0737-0.1697 0.3394-0.1497 0.6388-0.3863 0.8719-0.6888 0.233-0.3025 0.3924-0.6615 0.4641-1.0453 0.0717-0.3837 0.0534-0.7804-0.0532-1.1549-0.1066-0.3744-0.2982-0.7151-0.5579-0.9918l-0.8936-0.9519" stroke-linecap="round" stroke-linejoin="round"/></g><g stroke="#ef476f" stroke-width="1.5" fill="none" transform="translate(407.6924798352743, 527.796924168119) scale(1.0)"><circle cx="10" cy="10" r="12" stroke="none" fill="#463b44" /><path d="m6.25 6.75 7.5 7.5m-11.25 3.75 15-15m0 0h-3.75m3.75 0v3.75" stroke-linecap="round" stroke-linejoin="round"/></g><g stroke="#ffd166" stroke-width="1.5" fill="none" transform="translate(511.1159597788223, 436.58475767678317) scale(1.0)"><circle cx="10" cy="10" r="12" stroke="none" fill="#484943" /><path d="m1.4167 7.7217h2.7783l2.7767 11.112 2.7783-11.112h5.555c0.6112-7e-5 1.2053-0.20182 1.6902-0.57397 0.4849-0.37214 0.8334-0.89387 0.9916-1.4843 0.1581-0.59042 0.117-1.2165-0.1169-1.7812-0.234-0.56468-0.6477-1.0364-1.1771-1.342-0.5293-0.30558-1.1447-0.42796-1.7507-0.34815s-1.1687 0.35734-1.6009 0.78956c-0.4322 0.43221-0.7097 0.99495-0.7895 1.601-0.0797 0.606 0.0427 1.2214 0.3483 1.7507l4.8117 8.3334c0.2134 0.3691 0.3391 0.7823 0.3672 1.2078 0.0282 0.4254-0.042 0.8516-0.205 1.2456s-0.4146 0.7451-0.7351 1.0263c-0.3205 0.2811-0.7015 0.4848-1.1133 0.5951-0.4119 0.1103-0.8436 0.1243-1.2617 0.041-0.4182-0.0833-0.8116-0.2617-1.1497-0.5215-0.3381-0.2597-0.6119-0.5938-0.8002-0.9763-0.1883-0.3826-0.286-0.8033-0.2856-1.2297" stroke-linecap="round" stroke-linejoin="round"/></g><g stroke="#06d6a0" stroke-width="1.5" fill="none" transform="translate(555.0772375120575, 305.8809643892967) scale(1.0)"><circle cx="10" cy="10" r="12" stroke="none" fill="#2f4949" /><path d="m1.6667 13.417c0.55302-0.5517 1.3022-0.8614 2.0833-0.8614s1.5303 0.3097 2.0833 0.8614c0.2735 0.2737 0.59827 0.4909 0.95574 0.639 0.35747 0.1482 0.74063 0.2244 1.1276 0.2244s0.77013-0.0762 1.1276-0.2244c0.35747-0.1481 0.68223-0.3653 0.95573-0.639 0.553-0.5517 1.3022-0.8614 2.0833-0.8614s1.5304 0.3097 2.0834 0.8614c0.2735 0.2737 0.5982 0.4909 0.9557 0.639 0.3575 0.1482 0.7406 0.2244 1.1276 0.2244s0.7701-0.0762 1.1276-0.2244c0.3575-0.1481 0.6822-0.3653 0.9557-0.639m-16.667-5.8334c0.55302-0.55162 1.3022-0.86141 2.0833-0.86141s1.5303 0.30979 2.0833 0.86141c0.2735 0.27374 0.59827 0.4909 0.95574 0.63906s0.74063 0.22442 1.1276 0.22442 0.77013-0.07626 1.1276-0.22442 0.68223-0.36532 0.95573-0.63906c0.553-0.55162 1.3022-0.86141 2.0833-0.86141s1.5304 0.30979 2.0834 0.86141c0.2735 0.27374 0.5982 0.4909 0.9557 0.63906s0.7406 0.22442 1.1276 0.22442 0.7701-0.07626 1.1276-0.22442 0.6822-0.36532 0.9557-0.63906" stroke-linecap="round" stroke-linejoin="round"/></g><g stroke="#81bce7" stroke-width="1.5" fill="none" transform="translate(527.796924168119, 170.7075201647257) scale(1.0)"><circle cx="10" cy="10" r="12" stroke="none" fill="#3b4750" /><path d="m15.208 3.2833c-1.2667 0.73143-2.3186 1.7834-3.0499 3.0502-0.7314 1.2668-1.1164 2.7038-1.1164 4.1665 0 1.4627 0.385 2.8997 1.1164 4.1665 0.7313 1.2668 1.7832 2.3187 3.0499 3.0502m-10.417 0c1.2667-0.7315 2.3186-1.7834 3.05-3.0502 0.73133-1.2668 1.1164-2.7038 1.1164-4.1665 0-1.4627-0.38502-2.8997-1.1164-4.1665-0.73134-1.2668-1.7832-2.3188-3.05-3.0502m-3.125 7.2134h16.672" stroke-linecap="round" stroke-linejoin="round"/></g><line x1="141.6" y1="300.0" x2="120.0" y2="300.0" stroke="#ef476f" stroke-width="0.5" /><circle cx="120.0" cy="300.0" r="11.879999999999999" fill="#343a40" /><line x1="141.6" y1="300.0" x2="184.79999999999998" y2="300.0" stroke="#515860" stroke-width="0.5" stroke-dasharray="3.927272727272727" /><g transform="translate(109.2, 289.2) scale(1.0)" fill="#ef476f" stroke="none" stroke-width="1.5"><path d="m17.921 16.442c-0.2333 0.2484-0.5133 0.4346-0.84 0.5588s-0.6533 0.1863-0.98 0.1863c-0.476 0-0.8773-0.1118-1.204-0.3353-0.3173-0.236-0.5787-0.565-0.784-0.9872-0.2053-0.4346-0.3547-0.95-0.448-1.546-0.084-0.6085-0.126-1.2853-0.126-2.0303 0-1.6268 0.2193-2.8499 0.658-3.6695s1.0827-1.2294 1.932-1.2294c0.42 0 0.7607 0.04967 1.022 0.14901 0.2707 0.09934 0.5087 0.22352 0.714 0.37254l-0.392 1.844c-0.168-0.11176-0.3313-0.19247-0.49-0.24214-0.1493-0.06209-0.3313-0.09314-0.546-0.09314-0.392 0-0.686 0.22973-0.882 0.68915-0.196 0.4471-0.294 1.1735-0.294 2.1794 0 0.8444 0.098 1.5336 0.294 2.0675 0.2053 0.534 0.5273 0.801 0.966 0.801 0.2333 0 0.4293-0.0373 0.588-0.1118 0.168-0.0869 0.322-0.1925 0.462-0.3167l0.35 1.7137z"/>
<path d="m11.669 14.468c0-0.2608-0.0654-0.4781-0.196-0.652-0.1214-0.1862-0.28-0.3539-0.476-0.5029-0.196-0.1614-0.406-0.3228-0.63-0.4843-0.2147-0.1614-0.42003-0.3601-0.61603-0.596-0.196-0.236-0.35933-0.5216-0.49-0.8568-0.12133-0.3353-0.182-0.7575-0.182-1.2667 0-0.8692 0.17733-1.5398 0.532-2.0116 0.35467-0.47187 0.87733-0.70781 1.568-0.70781 0.4106 0 0.798 0.06209 1.162 0.18627 0.364 0.11176 0.6533 0.25456 0.868 0.42841l-0.392 1.7136c-0.1774-0.09934-0.392-0.19248-0.644-0.2794-0.252-0.09934-0.4994-0.14901-0.742-0.14901-0.4574 0-0.686 0.25456-0.686 0.76373 0 0.2359 0.0606 0.4346 0.182 0.596 0.1306 0.149 0.294 0.298 0.49 0.4471 0.196 0.149 0.4013 0.3042 0.616 0.4656 0.224 0.1614 0.434 0.3663 0.63 0.6147 0.196 0.2359 0.3546 0.5278 0.476 0.8755 0.1306 0.3476 0.196 0.7761 0.196 1.2852 0 0.8568-0.196 1.546-0.588 2.0675-0.392 0.5216-0.9754 0.7824-1.75 0.7824-0.3827 0-0.7607-0.0621-1.134-0.1863-0.364-0.1242-0.658-0.2856-0.882-0.4843l0.462-1.7882c0.196 0.1491 0.42 0.2794 0.67203 0.3912 0.2613 0.1118 0.532 0.1676 0.812 0.1676 0.2146 0 0.392-0.062 0.532-0.1862 0.14-0.1366 0.21-0.3477 0.21-0.6333z"/>
<path d="m6.7129 14.002h-2.31l-0.574 2.943h-1.75l2.842-13.132h1.386l2.856 13.132h-1.848l-0.602-2.943zm-1.932-1.9372h1.624l-0.56-3.0361-0.224-2.0489h-0.056l-0.238 2.0676-0.546 3.0175z"/></g><line x1="362.95185408654" y1="445.3534453223142" x2="371.5361978256136" y2="465.1743696844479" stroke="#81bce7" stroke-width="0.5" /><circle cx="371.5361978256136" cy="465.1743696844479" r="11.879999999999999" fill="#343a40" /><line x1="362.95185408654" y1="445.3534453223142" x2="345.7831666083927" y2="405.7115965980467" stroke="#515860" stroke-width="0.5" stroke-dasharray="3.927272727272727" /><g transform="translate(360.7361978256136, 454.3743696844479) scale(1.0)" fill="none" stroke="#81bce7" stroke-width="1.5"><path d="m3.75 5.5c0.03771 1.6326 0.71274 3.1857 1.8807 4.327 1.168 1.1413 2.7362 1.7803 4.3693 1.7803 1.633 0 3.2013-0.639 4.3693-1.7803 1.168-1.1413 1.843-2.6944 1.8807-4.327m-6.25 13.333v-7.0833m-4.1667 3.5417h8.3334m-0.8334-9.7917c0-0.88406-0.3512-1.7319-0.9763-2.357s-1.4729-0.97631-2.357-0.97631c-0.88405 0-1.7319 0.35119-2.357 0.97631s-0.97631 1.473-0.97631 2.357c0 0.88405 0.35119 1.7319 0.97631 2.357s1.473 0.97631 2.357 0.97631c0.8841 0 1.7319-0.35119 2.357-0.97631s0.9763-1.473 0.9763-2.357z" stroke-linecap="round" stroke-linejoin="round" stroke-miterlimit="10"/></g><line x1="387.67705468679935" y1="431.92154517533515" x2="399.63301668954466" y2="449.91084679015364" stroke="#ffd166" stroke-width="0.5" /><circle cx="399.63301668954466" cy="449.91084679015364" r="11.879999999999999" fill="#343a40" /><line x1="387.67705468679935" y1="431.92154517533515" x2="363.7651306813086" y2="395.9429419456983" stroke="#515860" stroke-width="0.5" stroke-dasharray="3.927272727272727" /><g transform="translate(388.83301668954465, 439.11084679015363) scale(1.0)" fill="none" stroke="#ffd166" stroke-width="1.5"><path d="m10 18.833v-6.6666m0 0c1.3261 0 2.5979-0.5268 3.5355-1.4645 0.9377-0.93768 1.4645-2.2094 1.4645-3.5355s-0.5268-2.5978-1.4645-3.5355c-0.9376-0.93768-2.2094-1.4645-3.5355-1.4645-1.3261 0-2.5978 0.52679-3.5355 1.4645-0.93769 0.93768-1.4645 2.2094-1.4645 3.5355s0.52678 2.5978 1.4645 3.5355c0.93768 0.9377 2.2094 1.4645 3.5355 1.4645zm-3.3333 3.3333h6.6666" stroke-linecap="round" stroke-linejoin="round"/></g><line x1="447.94008620224815" y1="356.60645629671046" x2="461.84522599268035" y2="378.77894911318776" stroke="#ef476f" stroke-width="0.5" /><circle cx="461.84522599268035" cy="378.77894911318776" r="11.879999999999999" fill="#343a40" /><line x1="447.94008620224815" y1="356.60645629671046" x2="407.5927899652714" y2="341.1683318521531" stroke="#515860" stroke-width="0.5" stroke-dasharray="3.927272727272727" /><g transform="translate(451.04522599268034, 367.97894911318775) scale(1.0)" fill="none" stroke="#ef476f" stroke-width="1.5"><path d="m10.025 9.7504c-0.10054-0.00336-0.20072 0.01355-0.2946 0.04971-0.09387 0.03616-0.17951 0.09083-0.25182 0.16077-0.07231 0.0699-0.12981 0.1537-0.16908 0.2463s-0.05951 0.1922-0.05951 0.2928 0.02024 0.2002 0.05951 0.2928 0.09677 0.1764 0.16908 0.2463 0.15795 0.1246 0.25182 0.1608c0.09388 0.0361 0.19406 0.053 0.2946 0.0497 0.1945-0.0065 0.3788-0.0883 0.5141-0.2282s0.2109-0.3268 0.2109-0.5214-0.0756-0.3815-0.2109-0.52141c-0.1353-0.13987-0.3196-0.22168-0.5141-0.22817z"/>
<path d="m10 2.1667c4.6028 0 8.3333 3.7305 8.3333 8.3333 0 4.6028-3.7305 8.3333-8.3333 8.3333-4.6028 0-8.3333-3.7305-8.3333-8.3333 0-4.6028 3.7305-8.3333 8.3333-8.3333z" stroke-miterlimit="10"/></g><line x1="449.42290514334445" y1="352.56762709618056" x2="471.3306536020326" y2="355.1888316265196" stroke="#06d6a0" stroke-width="0.5" /><circle cx="471.3306536020326" cy="355.1888316265196" r="11.879999999999999" fill="#343a40" /><line x1="449.42290514334445" y1="352.56762709618056" x2="408.67120374061415" y2="338.23100152449496" stroke="#515860" stroke-width="0.5" stroke-dasharray="3.927272727272727" /><g transform="translate(460.5306536020326, 344.38883162651956) scale(1.0)" fill="none" stroke="#06d6a0" stroke-width="1.5"><path d="m10 5.5c0.8841 0 1.7319 0.35118 2.357 0.97631 0.6251 0.62512 0.9763 1.473 0.9763 2.357 0 0.88405-0.3512 1.7319-0.9763 2.3571-0.6251 0.6251-1.4729 0.9763-2.357 0.9763m0-6.6667c-0.88406 0-1.7319 0.35118-2.357 0.97631-0.62512 0.62512-0.97631 1.473-0.97631 2.357 0 0.88405 0.35119 1.7319 0.97631 2.3571 0.62513 0.6251 1.473 0.9763 2.357 0.9763m0-6.6667c-0.88406 0-1.7319-0.35119-2.357-0.97632-0.62512-0.62512-0.97631-1.473-0.97631-2.357m3.3333 3.3333c0.8841 0 1.7319-0.35119 2.357-0.97632 0.6251-0.62512 0.9763-1.473 0.9763-2.357m-3.3333 10v6.6666m-3.3333-3.3333h6.6666" stroke-linecap="round" stroke-linejoin="round" stroke-miterlimit="10"/></g><line x1="453.16524434356427" y1="340.3852439038847" x2="477.39757472342524" y2="330.49754879079256" stroke="#81bce7" stroke-width="0.5" /><circle cx="477.39757472342524" cy="330.49754879079256" r="11.879999999999999" fill="#343a40" /><line x1="453.16524434356427" y1="340.3852439038847" x2="411.3929049771376" y2="329.3710864755525" stroke="#515860" stroke-width="0.5" stroke-dasharray="3.927272727272727" /><g transform="translate(466.5975747234252, 319.69754879079255) scale(1.0)" fill="none" stroke="#81bce7" stroke-width="1.5"><path d="m10 18.625v-14.375m-4.1667 10h8.3333m-10.417-8.5417c0.0377 1.6326 0.71274 3.1857 1.8807 4.327 1.168 1.1414 2.7362 1.7803 4.3693 1.7803 1.633 0 3.2013-0.6389 4.3693-1.7803 1.168-1.1413 1.8429-2.6944 1.8807-4.327" stroke-linecap="round" stroke-linejoin="round"/>
<path d="m2.5 6.75 1.25-2.5 1.25 2.5m10 0 1.25-2.5 1.25 2.5m-8.75-1.25 1.25-2.5 1.25 2.5" stroke-linecap="round" stroke-linejoin="round"/></g><line x1="458.2007645960308" y1="307.9421710653473" x2="479.9983705400364" y2="299.23409992051165" stroke="#06d6a0" stroke-width="0.5" /><circle cx="479.9983705400364" cy="299.23409992051165" r="11.879999999999999" fill="#343a40" /><line x1="458.2007645960308" y1="307.9421710653473" x2="415.0551015243861" y2="305.7761244111617" stroke="#515860" stroke-width="0.5" stroke-dasharray="3.927272727272727" /><g transform="translate(469.19837054003636, 288.43409992051164) scale(1.0)" fill="none" stroke="#06d6a0" stroke-width="1.5"><path d="m12.083 16.75c0 0.5525-0.2194 1.0824-0.6101 1.4731s-0.9207 0.6102-1.4732 0.6102c-0.41156-3e-4 -0.8138-0.1226-1.1559-0.3515-0.34207-0.2288-0.60863-0.554-0.76598-0.9343s-0.19843-0.7987-0.11806-1.2024c0.08038-0.4036 0.2786-0.7744 0.56963-1.0654s0.66179-0.4892 1.0654-0.5696 0.82204-0.0393 1.2023 0.118c0.3803 0.1574 0.7055 0.4239 0.9343 0.766 0.2289 0.3421 0.3512 0.7443 0.3515 1.1559z" stroke-linecap="round" stroke-linejoin="round" stroke-miterlimit="10"/>
<path d="M10 14.6667V4.25" stroke-linecap="round" stroke-linejoin="round" stroke-miterlimit="10"/>
<path d="m5.8333 2.1667v8.3333" stroke-linecap="round" stroke-linejoin="round" stroke-miterlimit="10"/>
<path d="m14.167 2.1667v8.3333" stroke-linecap="round" stroke-linejoin="round" stroke-miterlimit="10"/>
<path d="m5.8333 6.3333h8.3334" stroke-linecap="round" stroke-linejoin="round" stroke-miterlimit="10"/></g><line x1="446.3269294695065" y1="239.3453240712139" x2="466.28060166989377" y2="231.07423189910673" stroke="#ef476f" stroke-width="0.5" /><circle cx="466.28060166989377" cy="231.07423189910673" r="11.879999999999999" fill="#343a40" /><line x1="446.3269294695065" y1="239.3453240712139" x2="406.41958506873203" y2="255.8875084154283" stroke="#515860" stroke-width="0.5" stroke-dasharray="3.927272727272727" /><g transform="translate(455.48060166989376, 220.27423189910672) scale(1.0)" fill="none" stroke="#ef476f" stroke-width="1.5"><path d="m12.742 7.758 4.758-4.758m0 0h-2.655m2.655 0v2.655m-3 6.345c0-3.3105-2.6895-6-6-6s-6 2.6895-6 6 2.6895 6 6 6 6-2.6895 6-6z" stroke-linecap="round" stroke-linejoin="round" stroke-miterlimit="10"/></g><line x1="359.79423252101486" y1="153.31936134164533" x2="367.94799150115324" y2="133.31745607005152" stroke="#ef476f" stroke-width="0.5" /><circle cx="367.94799150115324" cy="133.31745607005152" r="11.879999999999999" fill="#343a40" /><line x1="359.79423252101486" y1="153.31936134164533" x2="343.4867145607381" y2="193.32317188483296" stroke="#515860" stroke-width="0.5" stroke-dasharray="3.927272727272727" /><g transform="translate(357.14799150115323, 122.51745607005152) scale(1.0)" fill="none" stroke="#ef476f" stroke-width="1.5"><path d="m3.75 2.1667c1.0972 0.63337 2.0083 1.5444 2.6417 2.6415s0.96694 2.3416 0.96694 3.6085-0.33349 2.5114-0.96694 3.6085-1.5446 2.0081-2.6417 2.6415h12.5m-4.1667-4.1667v8.3333" stroke-linecap="round" stroke-linejoin="round" stroke-miterlimit="1.5"/></g><line x1="322.7693576597486" y1="143.24504361340772" x2="329.38380463233835" y2="122.41455007425702" stroke="#ffd166" stroke-width="0.5" /><circle cx="329.38380463233835" cy="122.41455007425702" r="11.879999999999999" fill="#343a40" /><line x1="322.7693576597486" y1="143.24504361340772" x2="316.55953284345355" y2="185.9963953552056" stroke="#515860" stroke-width="0.5" stroke-dasharray="3.927272727272727" /><g transform="translate(318.58380463233834, 111.61455007425702) scale(1.0)" fill="none" stroke="#ffd166" stroke-width="1.5"><path d="m5 5.5h6.6667m-3.3334-3.3333v8.3333c5.5e-4 -0.5476 0.13607-1.0866 0.39456-1.5694 0.2585-0.48275 0.632-0.89435 1.0875-1.1984 0.45544-0.30401 0.97884-0.49107 1.5238-0.54463 0.545-0.05355 1.0947 0.02806 1.6007 0.2376 0.5059 0.20955 0.9524 0.54057 1.2999 0.96377 0.3475 0.42321 0.5854 0.92555 0.6925 1.4626s0.0802 1.0921-0.0783 1.6163c-0.1586 0.5242-0.4439 1.0011-0.8307 1.3888-1.51 1.51-2.3566 3.8433-2.3566 5.9766" stroke-linecap="round" stroke-linejoin="round" stroke-miterlimit="10"/></g><line x1="306.704199181162" y1="141.7419394996283" x2="304.06865307100924" y2="120.04598903556561" stroke="#ffd166" stroke-width="0.5" /><circle cx="304.06865307100924" cy="120.04598903556561" r="11.879999999999999" fill="#343a40" /><line x1="306.704199181162" y1="141.7419394996283" x2="304.87578122266325" y2="184.90322872700239" stroke="#515860" stroke-width="0.5" stroke-dasharray="3.927272727272727" /><g transform="translate(293.2686530710092, 109.24598903556561) scale(1.0)" fill="#ffd166" stroke="none" stroke-width="1.5"><path d="m17.186 16.419c-0.2427 0.2732-0.5694 0.4719-0.98 0.5961-0.4014 0.1242-0.8027 0.1863-1.204 0.1863-0.504 0-0.9754-0.1118-1.414-0.3353-0.4294-0.236-0.8074-0.6209-1.134-1.1549-0.3267-0.5339-0.5834-1.2355-0.77-2.1048-0.1867-0.8692-0.28-1.9371-0.28-3.2038 0-1.3162 0.1026-2.409 0.308-3.2782 0.2146-0.86924 0.49-1.5584 0.826-2.0676 0.3453-0.52154 0.7373-0.88787 1.176-1.099 0.4386-0.2111 0.882-0.31665 1.33-0.31665 0.4573 0 0.854 0.04967 1.19 0.14901 0.3453 0.09934 0.6253 0.2111 0.84 0.33528l-0.35 2.0676c-0.1774-0.12418-0.3874-0.21731-0.63-0.2794-0.2334-0.07451-0.5134-0.11176-0.84-0.11176-0.644 0-1.1387 0.37253-1.484 1.1176-0.3454 0.74506-0.518 1.9123-0.518 3.5018 0 0.6829 0.0373 1.31 0.112 1.8813 0.084 0.5588 0.21 1.0431 0.378 1.4528 0.1773 0.4098 0.3966 0.7265 0.658 0.95 0.2706 0.2235 0.5926 0.3353 0.966 0.3353 0.3266 0 0.6066-0.0559 0.84-0.1677 0.2333-0.1241 0.4433-0.2669 0.63-0.4284l0.35 1.9744z"/>
<path d="m9.0229 10.216 0.196-2.496h-0.07l-0.518 2.2352-1.596 4.5822h-0.588l-1.694-4.6008-0.518-2.2538h-0.084l0.266 2.5146v6.7429h-1.666v-13.039h1.694l2.044 5.6439 0.336 1.6205h0.056l0.322-1.6577 1.918-5.6066h1.666v13.039h-1.764v-6.7242z"/></g><line x1="218.87822248425047" y1="163.94921090752453" x2="207.816161913921" y2="145.39683057673244" stroke="#81bce7" stroke-width="0.5" /><circle cx="207.816161913921" cy="145.39683057673244" r="11.879999999999999" fill="#343a40" /><line x1="218.87822248425047" y1="163.94921090752453" x2="241.00234362490943" y2="201.05397156910874" stroke="#515860" stroke-width="0.5" stroke-dasharray="3.927272727272727" /><g transform="translate(197.016161913921, 134.59683057673243) scale(1.0)" fill="none" stroke="#81bce7" stroke-width="1.5"><path d="m14.335 12.348c1.3542 0 2.6084-0.4277 3.635-1.1554-0.3512 4.0938-3.7855 7.3071-7.9704 7.3071-4.4183 0-8-3.5817-8-8 0-4.1174 3.1105-7.5083 7.1098-7.951-0.67377 1.002-1.0669 2.2085-1.0669 3.5068 0 3.4753 2.8172 6.2926 6.2925 6.2926z" stroke-linejoin="round"/></g><line x1="146.60893904252387" y1="260.4811131439681" x2="125.69197618468624" y2="255.0921740272365" stroke="#118ab2" stroke-width="0.5" /><circle cx="125.69197618468624" cy="255.0921740272365" r="11.879999999999999" fill="#343a40" /><line x1="146.60893904252387" y1="260.4811131439681" x2="188.44286475819916" y2="271.25899137743136" stroke="#515860" stroke-width="0.5" stroke-dasharray="3.927272727272727" /><g transform="translate(114.89197618468624, 244.29217402723648) scale(1.0)" fill="none" stroke="#118ab2" stroke-width="1.5"><path d="m5.2867 14.412c0.19346 0.1933 0.34694 0.4228 0.45164 0.6755 0.10471 0.2527 0.15861 0.5235 0.15861 0.797s-0.0539 0.5443-0.15861 0.7969c-0.1047 0.2527-0.25818 0.4823-0.45164 0.6756-0.19335 0.1937-0.423 0.3474-0.67582 0.4522-0.25281 0.1049-0.52382 0.1589-0.79751 0.1589-0.2737 0-0.54471-0.054-0.79752-0.1589-0.25281-0.1048-0.48246-0.2585-0.67582-0.4522-0.19346-0.1933-0.34693-0.4229-0.45164-0.6756-0.10471-0.2526-0.1586-0.5234-0.1586-0.7969s0.05389-0.5443 0.1586-0.797 0.25818-0.4822 0.45164-0.6755c0.19336-0.1937 0.42301-0.3474 0.67582-0.4523 0.25281-0.1048 0.52382-0.1588 0.79752-0.1588 0.27369 0 0.5447 0.054 0.79751 0.1588 0.25282 0.1049 0.48247 0.2586 0.67582 0.4523z"/>
<path d="m5.2867 14.412c-1.2491-1.2509-1.9507-2.9464-1.9507-4.7142 0-1.7678 0.70159-3.4633 1.9507-4.7142 1.2508-1.2486 2.946-1.9498 4.7133-1.9498 1.7674 0 3.4625 0.70126 4.7133 1.9498 1.2491 1.2509 1.9507 2.9464 1.9507 4.7142 0 1.7678-0.7016 3.4633-1.9507 4.7142"/>
<path d="m17.66 14.412c0.1935 0.1933 0.3469 0.4228 0.4516 0.6755 0.1048 0.2527 0.1587 0.5235 0.1587 0.797s-0.0539 0.5443-0.1587 0.7969c-0.1047 0.2527-0.2581 0.4823-0.4516 0.6756-0.1933 0.1937-0.423 0.3474-0.6758 0.4522-0.2528 0.1049-0.5238 0.1589-0.7975 0.1589s-0.5447-0.054-0.7975-0.1589c-0.2529-0.1048-0.4825-0.2585-0.6759-0.4522-0.1934-0.1933-0.3469-0.4229-0.4516-0.6756-0.1047-0.2526-0.1586-0.5234-0.1586-0.7969s0.0539-0.5443 0.1586-0.797 0.2582-0.4822 0.4516-0.6755c0.1934-0.1937 0.423-0.3474 0.6759-0.4523 0.2528-0.1048 0.5238-0.1588 0.7975-0.1588s0.5447 0.054 0.7975 0.1588c0.2528 0.1049 0.4825 0.2586 0.6758 0.4523z"/></g>None<circle cx="300.0" cy="300.0" r="158.4" fill="#343a40" stroke="#515860" stroke-width="1" /><line x1="447.94008620224815" y1="356.60645629671046" x2="449.42290514334445" y2="352.56762709618056" stroke="#FFA500" stroke-width="0.5" stroke-opacity="1" /><line x1="447.94008620224815" y1="356.60645629671046" x2="359.79423252101486" y2="153.31936134164533" stroke="#ef476f" stroke-width="0.5" stroke-opacity="0.793362583080731" /><line x1="447.94008620224815" y1="356.60645629671046" x2="453.16524434356427" y2="340.3852439038847" stroke="#FFA500" stroke-width="0.5" stroke-opacity="1" /><line x1="218.87822248425047" y1="163.94921090752453" x2="387.67705468679935" y2="431.92154517533515" stroke="#81bce7" stroke-width="0.5" stroke-opacity="0.5328935430416095" /><line x1="218.87822248425047" y1="163.94921090752453" x2="458.2007645960308" y2="307.9421710653473" stroke="#06d6a0" stroke-width="0.5" stroke-opacity="0.38666859310759116" /><line x1="218.87822248425047" y1="163.94921090752453" x2="141.6" y2="300.0" stroke="#118ab2" stroke-width="0.5" stroke-opacity="0.8388050473988841" /><line x1="449.42290514334445" y1="352.56762709618056" x2="359.79423252101486" y2="153.31936134164533" stroke="#ef476f" stroke-width="0.5" stroke-opacity="0.5339785462517266" /><line x1="449.42290514334445" y1="352.56762709618056" x2="453.16524434356427" y2="340.3852439038847" stroke="#FFA500" stroke-width="0.5" stroke-opacity="1" /><line x1="449.42290514334445" y1="352.56762709618056" x2="146.60893904252387" y2="260.4811131439681" stroke="#81bce7" stroke-width="0.5" stroke-opacity="0.17751977256528073" /><line x1="387.67705468679935" y1="431.92154517533515" x2="359.79423252101486" y2="153.31936134164533" stroke="#06d6a0" stroke-width="0.5" stroke-opacity="0.29780595372566177" /><line x1="387.67705468679935" y1="431.92154517533515" x2="141.6" y2="300.0" stroke="#06d6a0" stroke-width="0.5" stroke-opacity="0.3985644158740106" /><line x1="446.3269294695065" y1="239.3453240712139" x2="322.7693576597486" y2="143.24504361340772" stroke="#118ab2" stroke-width="0.5" stroke-opacity="0.8441207651322429" /><line x1="446.3269294695065" y1="239.3453240712139" x2="362.95185408654" y2="445.3534453223142" stroke="#ef476f" stroke-width="0.5" stroke-opacity="0.8495889068549095" /><line x1="322.7693576597486" y1="143.24504361340772" x2="458.2007645960308" y2="307.9421710653473" stroke="#ef476f" stroke-width="0.5" stroke-opacity="0.10155788385887377" /><line x1="322.7693576597486" y1="143.24504361340772" x2="306.704199181162" y2="141.7419394996283" stroke="#FFA500" stroke-width="0.5" stroke-opacity="1" /><line x1="458.2007645960308" y1="307.9421710653473" x2="362.95185408654" y2="445.3534453223142" stroke="#118ab2" stroke-width="0.5" stroke-opacity="0.25824200727251423" /><line x1="458.2007645960308" y1="307.9421710653473" x2="141.6" y2="300.0" stroke="#81bce7" stroke-width="0.5" stroke-opacity="0.5209977202751901" /><line x1="458.2007645960308" y1="307.9421710653473" x2="306.704199181162" y2="141.7419394996283" stroke="#ef476f" stroke-width="0.5" stroke-opacity="0.9252875922844245" /><line x1="453.16524434356427" y1="340.3852439038847" x2="146.60893904252387" y2="260.4811131439681" stroke="#81bce7" stroke-width="0.5" stroke-opacity="0.9460257170985168" /><line x1="141.6" y1="300.0" x2="306.704199181162" y2="141.7419394996283" stroke="#ef476f" stroke-width="0.5" stroke-opacity="0.5957101279907704" /></svg>